<?xml version="1.0" encoding="UTF-8"?>
<!DOCTYPE svg PUBLIC "-//W3C//DTD SVG 1.1//EN" "http://www.w3.org/Graphics/SVG/1.1/DTD/svg11.dtd">
<svg xmlns="http://www.w3.org/2000/svg" version="1.1" width="500px" height="500px" style="shape-rendering:geometricPrecision; text-rendering:geometricPrecision; image-rendering:optimizeQuality; fill-rule:evenodd; clip-rule:evenodd" xmlns:xlink="http://www.w3.org/1999/xlink">
<g><path style="opacity:1" fill="#000000" d="M -0.5,-0.5 C 166.167,-0.5 332.833,-0.5 499.5,-0.5C 499.5,166.167 499.5,332.833 499.5,499.5C 332.833,499.5 166.167,499.5 -0.5,499.5C -0.5,332.833 -0.5,166.167 -0.5,-0.5 Z"/></g>
<g><path style="opacity:1" fill="#f1f1f1" d="M 229.5,182.5 C 229.666,175.825 229.5,169.158 229,162.5C 228.283,163.044 227.783,163.711 227.5,164.5C 216.076,186.02 210.743,209.02 211.5,233.5C 211.469,243.944 212.469,254.277 214.5,264.5C 229.672,265.826 245.005,265.826 260.5,264.5C 260.376,263.893 260.043,263.56 259.5,263.5C 257.167,256.833 254.833,250.167 252.5,243.5C 255.287,242.523 258.287,242.19 261.5,242.5C 274.39,273.965 287.056,305.632 299.5,337.5C 318.537,339.884 336.204,336.05 352.5,326C 369.106,312.957 377.94,295.79 379,274.5C 379.5,265.84 379.666,257.173 379.5,248.5C 358.5,248.5 337.5,248.5 316.5,248.5C 316.5,245.5 316.5,242.5 316.5,239.5C 340.5,239.5 364.5,239.5 388.5,239.5C 388.5,275.167 388.5,310.833 388.5,346.5C 386.167,346.5 383.833,346.5 381.5,346.5C 381.077,333.476 380.244,320.476 379,307.5C 362.694,336.498 337.694,350.498 304,349.5C 248.836,348.024 215.669,320.357 204.5,266.5C 202.167,266.5 199.833,266.5 197.5,266.5C 197.5,269.167 197.5,271.833 197.5,274.5C 179.497,274.333 161.497,274.5 143.5,275C 133.809,298.403 124.309,321.903 115,345.5C 111.606,346.456 108.106,346.789 104.5,346.5C 134.835,269.669 165.668,193.003 197,116.5C 197.667,124.833 197.667,133.167 197,141.5C 180.533,181.738 164.367,222.071 148.5,262.5C 147.596,263.209 147.263,264.209 147.5,265.5C 166.341,265.83 185.007,265.497 203.5,264.5C 197.051,229.929 200.884,196.595 215,164.5C 239.982,119.426 278.149,100.593 329.5,108C 355.12,112.628 374.12,126.295 386.5,149C 384.605,150.979 382.605,152.979 380.5,155C 379.833,155.667 379.167,155.667 378.5,155C 363.183,128.669 340.183,115.836 309.5,116.5C 275.721,116.47 249.554,130.47 231,158.5C 230.675,160.553 231.009,162.553 232,164.5C 237.931,179.461 243.765,194.461 249.5,209.5C 246.167,210.833 242.833,210.833 239.5,209.5C 235.763,200.619 232.429,191.619 229.5,182.5 Z"/></g>
<g><path style="opacity:1" fill="#797979" d="M 229.5,182.5 C 228.833,176.5 228.167,170.5 227.5,164.5C 227.783,163.711 228.283,163.044 229,162.5C 229.5,169.158 229.666,175.825 229.5,182.5 Z"/></g>
<g><path style="opacity:1" fill="#a5a5a5" d="M 316.5,239.5 C 340.661,238.502 364.994,238.169 389.5,238.5C 389.5,274.833 389.5,311.167 389.5,347.5C 386.615,347.806 383.948,347.473 381.5,346.5C 383.833,346.5 386.167,346.5 388.5,346.5C 388.5,310.833 388.5,275.167 388.5,239.5C 364.5,239.5 340.5,239.5 316.5,239.5 Z"/></g>
<g><path style="opacity:1" fill="#6c6c6c" d="M 261.5,242.5 C 258.287,242.19 255.287,242.523 252.5,243.5C 251.957,243.44 251.624,243.107 251.5,242.5C 254.98,241.194 258.313,241.194 261.5,242.5 Z"/></g>
<g><path style="opacity:1" fill="#3d3d3d" d="M 148.5,262.5 C 166.47,264.487 184.803,265.154 203.5,264.5C 185.007,265.497 166.341,265.83 147.5,265.5C 147.263,264.209 147.596,263.209 148.5,262.5 Z"/></g>
<g><path style="opacity:1" fill="#3f3f3f" d="M 259.5,263.5 C 260.043,263.56 260.376,263.893 260.5,264.5C 245.005,265.826 229.672,265.826 214.5,264.5C 229.676,264.829 244.676,264.496 259.5,263.5 Z"/></g>
<g><path style="opacity:1" fill="#020202" d="M 228.5,266.5 C 228.5,269.167 228.5,271.833 228.5,274.5C 240.5,274.5 252.5,274.5 264.5,274.5C 272.4,295.366 280.4,316.199 288.5,337C 258.295,334.481 236.462,319.648 223,292.5C 219.468,284.405 216.635,276.072 214.5,267.5C 219.12,266.507 223.786,266.173 228.5,266.5 Z"/></g>
<g><path style="opacity:1" fill="#b0b0b0" d="M 228.5,266.5 C 229.468,268.607 229.802,270.941 229.5,273.5C 241.345,273.172 253.012,273.505 264.5,274.5C 252.5,274.5 240.5,274.5 228.5,274.5C 228.5,271.833 228.5,269.167 228.5,266.5 Z"/></g>
<g><path style="opacity:1" fill="#878787" d="M 226.5,374.5 C 225.883,374.389 225.383,374.056 225,373.5C 224.333,370.5 224.333,367.5 225,364.5C 225.339,367.88 225.839,371.213 226.5,374.5 Z"/></g>
<g><path style="opacity:1" fill="#5b5b5b" d="M 244.5,369.5 C 243.811,370.707 243.645,372.041 244,373.5C 243.085,372.672 242.419,371.672 242,370.5C 241.798,372.256 241.298,373.922 240.5,375.5C 239.341,371.878 239.175,368.211 240,364.5C 243.159,362.829 245.325,363.663 246.5,367C 246.316,368.376 245.649,369.209 244.5,369.5 Z"/></g>
<g><path style="opacity:1" fill="#7b7b7b" d="M 316.5,363.5 C 318.199,363.34 319.866,363.506 321.5,364C 322.696,364.654 322.696,365.154 321.5,365.5C 320.264,364.754 318.93,364.421 317.5,364.5C 317.5,366.167 317.5,367.833 317.5,369.5C 319.226,369.185 320.893,369.019 322.5,369C 321.833,369.667 321.167,370.333 320.5,371C 321.451,371.718 321.617,372.551 321,373.5C 318.524,369.697 317.19,370.363 317,375.5C 316.501,371.514 316.334,367.514 316.5,363.5 Z"/></g>
<g><path style="opacity:1" fill="#7f7f7f" d="M 374.5,364.5 C 375.808,368.019 375.808,371.685 374.5,375.5C 374.311,372.015 374.311,368.348 374.5,364.5 Z"/></g>
<g><path style="opacity:1" fill="#575757" d="M 156.5,364.5 C 160.967,363.138 162.633,363.138 161.5,364.5C 160.833,379.167 160.167,379.167 159.5,364.5C 158.5,364.5 157.5,364.5 156.5,364.5 Z"/></g>
<g><path style="opacity:1" fill="#7f7f7f" d="M 198.5,363.5 C 200.527,363.338 202.527,363.505 204.5,364C 202.866,364.494 201.199,364.66 199.5,364.5C 199.5,366.167 199.5,367.833 199.5,369.5C 206.167,369.833 206.167,370.167 199.5,370.5C 199.5,371.833 199.5,373.167 199.5,374.5C 201.199,374.34 202.866,374.506 204.5,375C 202.527,375.495 200.527,375.662 198.5,375.5C 198.5,371.5 198.5,367.5 198.5,363.5 Z"/></g>
<g><path style="opacity:1" fill="#080808" d="M 244.5,369.5 C 243.5,369.5 242.5,369.5 241.5,369.5C 241.087,364.449 242.421,363.616 245.5,367C 245.257,367.902 244.923,368.735 244.5,369.5 Z"/></g>
<g><path style="opacity:1" fill="#7f7f7f" d="M 252.5,363.5 C 254.527,363.338 256.527,363.505 258.5,364C 256.866,364.494 255.199,364.66 253.5,364.5C 253.5,366.167 253.5,367.833 253.5,369.5C 260.167,369.833 260.167,370.167 253.5,370.5C 253.5,371.833 253.5,373.167 253.5,374.5C 255.199,374.34 256.866,374.506 258.5,375C 256.527,375.495 254.527,375.662 252.5,375.5C 252.5,371.5 252.5,367.5 252.5,363.5 Z"/></g>
<g><path style="opacity:1" fill="#787878" d="M 336.5,365.5 C 334.5,365.167 332.5,364.833 330.5,364.5C 330.5,367.833 330.5,371.167 330.5,374.5C 332.199,374.34 333.866,374.506 335.5,375C 333.527,375.495 331.527,375.662 329.5,375.5C 329.5,371.5 329.5,367.5 329.5,363.5C 332.228,363.171 334.562,363.837 336.5,365.5 Z"/></g>
<g><path style="opacity:1" fill="#888888" d="M 366.5,364.5 C 367.289,364.783 367.956,365.283 368.5,366C 367.712,369.076 367.212,372.242 367,375.5C 366.501,371.848 366.335,368.182 366.5,364.5 Z"/></g>
<g><path style="opacity:1" fill="#5d5d5d" d="M 294.5,363.5 C 296.927,366.81 297.093,370.477 295,374.5C 292.936,375.591 290.769,375.758 288.5,375C 287.378,371.591 287.211,368.091 288,364.5C 288.333,367.5 288.667,370.5 289,373.5C 290.667,374.833 292.333,374.833 294,373.5C 294.498,370.183 294.665,366.85 294.5,363.5 Z"/></g>
<g><path style="opacity:1" fill="#626262" d="M 187.5,363.5 C 191.243,363.459 191.41,364.126 188,365.5C 187.333,366.5 187.333,367.5 188,368.5C 190.429,369.029 192.262,370.363 193.5,372.5C 191.927,375.193 189.593,376.026 186.5,375C 188.134,374.506 189.801,374.34 191.5,374.5C 191.649,373.448 191.483,372.448 191,371.5C 185.645,370.377 184.478,367.71 187.5,363.5 Z"/></g>
<g><path style="opacity:1" fill="#797979" d="M 212.5,374.5 C 210.974,373.508 210.307,372.008 210.5,370C 210.454,368.272 210.954,366.772 212,365.5C 211.186,368.487 211.352,371.487 212.5,374.5 Z"/></g>
<g><path style="opacity:1" fill="#414141" d="M 305.5,364.5 C 308.135,366.339 309.468,369.006 309.5,372.5C 307.208,372.244 305.041,372.577 303,373.5C 303.206,370.394 304.039,367.394 305.5,364.5 Z"/></g>
<g><path style="opacity:1" fill="#757575" d="M 170.5,365.5 C 170.707,367.604 170.874,369.937 171,372.5C 173.333,375.167 175.667,375.167 178,372.5C 178.333,370.5 178.667,368.5 179,366.5C 180.522,374.992 177.522,377.325 170,373.5C 169.278,370.739 169.445,368.073 170.5,365.5 Z"/></g>
<g><path style="opacity:1" fill="#747474" d="M 272.5,372.5 C 270.987,369.415 271.654,366.749 274.5,364.5C 274.833,364.667 275.167,364.833 275.5,365C 273.253,366.995 272.253,369.495 272.5,372.5 Z"/></g>
<g><path style="opacity:1" fill="#808080" d="M 336.5,365.5 C 337.117,365.611 337.617,365.944 338,366.5C 338.667,368.5 338.667,370.5 338,372.5C 337.56,370.134 337.06,367.801 336.5,365.5 Z"/></g>
<g><path style="opacity:1" fill="#656565" d="M 279.5,374.5 C 279.414,373.504 279.748,372.671 280.5,372C 279.376,371.751 278.376,371.251 277.5,370.5C 280.133,369.002 281.466,369.835 281.5,373C 281.676,375.359 281.009,375.859 279.5,374.5 Z"/></g>
<g><path style="opacity:1" fill="#7d7d7d" d="M 128.5,370.5 C 130.67,371.768 132.837,371.768 135,370.5C 136.187,372.044 136.52,373.711 136,375.5C 134.695,372.694 132.528,371.86 129.5,373C 128.874,373.75 128.374,374.584 128,375.5C 127.616,373.803 127.782,372.137 128.5,370.5 Z"/></g>
<g><path style="opacity:1" fill="#7d7d7d" d="M 352.5,370.5 C 354.67,371.768 356.837,371.768 359,370.5C 360.187,372.044 360.52,373.711 360,375.5C 358.695,372.694 356.528,371.86 353.5,373C 352.874,373.75 352.374,374.584 352,375.5C 351.616,373.803 351.782,372.137 352.5,370.5 Z"/></g>
<g><path style="opacity:1" fill="#7d7d7d" d="M 143.5,373.5 C 145.414,374.185 147.414,374.685 149.5,375C 148.5,375.167 147.5,375.333 146.5,375.5C 144.97,375.36 143.97,374.693 143.5,373.5 Z"/></g>
<g><path style="opacity:1" fill="#7a7a7a" d="M 212.5,374.5 C 214.915,374.373 217.249,374.207 219.5,374C 217.181,375.728 214.847,375.895 212.5,374.5 Z"/></g>
<g><path style="opacity:1" fill="#787878" d="M 226.5,374.5 C 228.78,374.254 230.78,374.254 232.5,374.5C 230.364,375.793 228.364,375.793 226.5,374.5 Z"/></g>
<g><path style="opacity:1" fill="#797979" d="M 272.5,372.5 C 274.479,374.168 276.812,374.834 279.5,374.5C 277.712,375.622 275.712,375.789 273.5,375C 272.748,374.329 272.414,373.496 272.5,372.5 Z"/></g>
</svg>
